<svg width="24" height="24" viewBox="0 0 24 24" fill="none" xmlns="http://www.w3.org/2000/svg">
<path d="M6 8.57143H8V10.8571H10V13.1429H8V15.4286H6V13.1429H4V10.8571H6V8.57143ZM18.5 8.57143C18.8978 8.57143 19.2794 8.75204 19.5607 9.07353C19.842 9.39502 20 9.83106 20 10.2857C20 10.7404 19.842 11.1764 19.5607 11.4979C19.2794 11.8194 18.8978 12 18.5 12C18.1022 12 17.7206 11.8194 17.4393 11.4979C17.158 11.1764 17 10.7404 17 10.2857C17 9.83106 17.158 9.39502 17.4393 9.07353C17.7206 8.75204 18.1022 8.57143 18.5 8.57143ZM15.5 12C15.8978 12 16.2794 12.1806 16.5607 12.5021C16.842 12.8236 17 13.2596 17 13.7143C17 14.1689 16.842 14.605 16.5607 14.9265C16.2794 15.248 15.8978 15.4286 15.5 15.4286C15.1022 15.4286 14.7206 15.248 14.4393 14.9265C14.158 14.605 14 14.1689 14 13.7143C14 13.2596 14.158 12.8236 14.4393 12.5021C14.7206 12.1806 15.1022 12 15.5 12ZM17 4C18.8565 4 20.637 4.84285 21.9497 6.34315C23.2625 7.84344 24 9.87827 24 12C24 14.1217 23.2625 16.1566 21.9497 17.6569C20.637 19.1571 18.8565 20 17 20C15.04 20 13.27 19.0857 12 17.6C10.73 19.0857 8.96 20 7 20C5.14348 20 3.36301 19.1571 2.05025 17.6569C0.737498 16.1566 0 14.1217 0 12C0 9.87827 0.737498 7.84344 2.05025 6.34315C3.36301 4.84285 5.14348 4 7 4H17ZM7 6.28571C5.67392 6.28571 4.40215 6.88775 3.46447 7.95939C2.52678 9.03103 2 10.4845 2 12C2 13.5155 2.52678 14.969 3.46447 16.0406C4.40215 17.1122 5.67392 17.7143 7 17.7143C8.64 17.7143 10.09 16.8114 11 15.4286H13C13.91 16.8114 15.36 17.7143 17 17.7143C18.3261 17.7143 19.5979 17.1122 20.5355 16.0406C21.4732 14.969 22 13.5155 22 12C22 10.4845 21.4732 9.03103 20.5355 7.95939C19.5979 6.88775 18.3261 6.28571 17 6.28571H7Z" fill="#888888"/>
</svg>
