<svg width="22" height="22" viewBox="0 0 22 22" fill="none" xmlns="http://www.w3.org/2000/svg">
<path d="M16.5 7.33337C16.5 5.87468 15.9205 4.47574 14.8891 3.44429C13.8576 2.41284 12.4587 1.83337 11 1.83337C9.54131 1.83337 8.14236 2.41284 7.11091 3.44429C6.07946 4.47574 5.5 5.87468 5.5 7.33337C5.5 13.75 2.75 15.5834 2.75 15.5834H19.25C19.25 15.5834 16.5 13.75 16.5 7.33337Z" stroke="white" stroke-width="1.5" stroke-linecap="round" stroke-linejoin="round"/>
<path d="M12.5858 19.25C12.4247 19.5278 12.1934 19.7584 11.915 19.9187C11.6367 20.079 11.3212 20.1634 11 20.1634C10.6788 20.1634 10.3633 20.079 10.085 19.9187C9.80665 19.7584 9.57533 19.5278 9.41417 19.25" stroke="white" stroke-width="1.5" stroke-linecap="round" stroke-linejoin="round"/>
<circle cx="15" cy="4" r="4" fill="white"/>
</svg>
