<svg width="336" height="65" viewBox="0 0 336 65" fill="none" xmlns="http://www.w3.org/2000/svg">
<g filter="url(#filter0_d_81_1600)">
<rect x="2" width="332" height="59" rx="10" fill="white"/>
<rect x="2.25" y="0.25" width="331.5" height="58.5" rx="9.75" stroke="black" stroke-opacity="0.5" stroke-width="0.5"/>
</g>
<path d="M111 20H117C118.061 20 119.078 20.4214 119.828 21.1716C120.579 21.9217 121 22.9391 121 24V38C121 37.2044 120.684 36.4413 120.121 35.8787C119.559 35.3161 118.796 35 118 35H111V20Z" stroke="#888888" stroke-width="2" stroke-linecap="round" stroke-linejoin="round"/>
<path d="M131 20H125C123.939 20 122.922 20.4214 122.172 21.1716C121.421 21.9217 121 22.9391 121 24V38C121 37.2044 121.316 36.4413 121.879 35.8787C122.441 35.3161 123.204 35 124 35H131V20Z" stroke="#888888" stroke-width="2" stroke-linecap="round" stroke-linejoin="round"/>
<path d="M48 21H30C28.8954 21 28 21.8954 28 23V35C28 36.1046 28.8954 37 30 37H48C49.1046 37 50 36.1046 50 35V23C50 21.8954 49.1046 21 48 21Z" stroke="url(#paint0_linear_81_1600)" stroke-width="2" stroke-linecap="round" stroke-linejoin="round"/>
<path d="M28 27H50" stroke="url(#paint1_linear_81_1600)" stroke-width="2" stroke-linecap="round" stroke-linejoin="round"/>
<path d="M286 25.5714H288V27.8571H290V30.1429H288V32.4286H286V30.1429H284V27.8571H286V25.5714ZM298.5 25.5714C298.898 25.5714 299.279 25.752 299.561 26.0735C299.842 26.395 300 26.8311 300 27.2857C300 27.7404 299.842 28.1764 299.561 28.4979C299.279 28.8194 298.898 29 298.5 29C298.102 29 297.721 28.8194 297.439 28.4979C297.158 28.1764 297 27.7404 297 27.2857C297 26.8311 297.158 26.395 297.439 26.0735C297.721 25.752 298.102 25.5714 298.5 25.5714ZM295.5 29C295.898 29 296.279 29.1806 296.561 29.5021C296.842 29.8236 297 30.2596 297 30.7143C297 31.1689 296.842 31.605 296.561 31.9265C296.279 32.248 295.898 32.4286 295.5 32.4286C295.102 32.4286 294.721 32.248 294.439 31.9265C294.158 31.605 294 31.1689 294 30.7143C294 30.2596 294.158 29.8236 294.439 29.5021C294.721 29.1806 295.102 29 295.5 29ZM297 21C298.857 21 300.637 21.8429 301.95 23.3431C303.263 24.8434 304 26.8783 304 29C304 31.1217 303.263 33.1566 301.95 34.6569C300.637 36.1571 298.857 37 297 37C295.04 37 293.27 36.0857 292 34.6C290.73 36.0857 288.96 37 287 37C285.143 37 283.363 36.1571 282.05 34.6569C280.737 33.1566 280 31.1217 280 29C280 26.8783 280.737 24.8434 282.05 23.3431C283.363 21.8429 285.143 21 287 21H297ZM287 23.2857C285.674 23.2857 284.402 23.8878 283.464 24.9594C282.527 26.031 282 27.4845 282 29C282 30.5155 282.527 31.969 283.464 33.0406C284.402 34.1122 285.674 34.7143 287 34.7143C288.64 34.7143 290.09 33.8114 291 32.4286H293C293.91 33.8114 295.36 34.7143 297 34.7143C298.326 34.7143 299.598 34.1122 300.536 33.0406C301.473 31.969 302 30.5155 302 29C302 27.4845 301.473 26.031 300.536 24.9594C299.598 23.8878 298.326 23.2857 297 23.2857H287Z" fill="#888888"/>
<path d="M216 27C216 26.45 216.45 26 217 26C217.55 26 218 26.45 218 27C218 27.55 217.55 28 217 28C216.45 28 216 27.55 216 27ZM209 26H214V24H209V26ZM223 24.5V31.47L220.18 32.41L218.5 38H213V36H211V38H205.5C205.5 38 203 29.54 203 26.5C203 23.46 205.46 21 208.5 21H213.5C214.41 19.79 215.86 19 217.5 19C218.33 19 219 19.67 219 20.5C219 20.71 218.96 20.9 218.88 21.08C218.74 21.42 218.62 21.81 218.56 22.23L220.83 24.5H223ZM221 26.5H220L216.5 23C216.5 22.35 216.59 21.71 216.76 21.09C215.79 21.34 215 22.06 214.67 23H208.5C206.57 23 205 24.57 205 26.5C205 28.38 206.22 33.15 207 36H209V34H215V36H217L218.56 30.85L221 30.03V26.5Z" fill="url(#paint2_linear_81_1600)"/>
<defs>
<filter id="filter0_d_81_1600" x="0" y="0" width="336" height="65" filterUnits="userSpaceOnUse" color-interpolation-filters="sRGB">
<feFlood flood-opacity="0" result="BackgroundImageFix"/>
<feColorMatrix in="SourceAlpha" type="matrix" values="0 0 0 0 0 0 0 0 0 0 0 0 0 0 0 0 0 0 127 0" result="hardAlpha"/>
<feOffset dy="4"/>
<feGaussianBlur stdDeviation="1"/>
<feComposite in2="hardAlpha" operator="out"/>
<feColorMatrix type="matrix" values="0 0 0 0 0 0 0 0 0 0 0 0 0 0 0 0 0 0 0.25 0"/>
<feBlend mode="normal" in2="BackgroundImageFix" result="effect1_dropShadow_81_1600"/>
<feBlend mode="normal" in="SourceGraphic" in2="effect1_dropShadow_81_1600" result="shape"/>
</filter>
<linearGradient id="paint0_linear_81_1600" x1="39" y1="21" x2="39" y2="37" gradientUnits="userSpaceOnUse">
<stop stop-color="#EC0000"/>
<stop offset="0.927083" stop-color="#7A00BC"/>
</linearGradient>
<linearGradient id="paint1_linear_81_1600" x1="39" y1="27" x2="39" y2="28" gradientUnits="userSpaceOnUse">
<stop stop-color="#EC0000"/>
<stop offset="0.927083" stop-color="#7A00BC"/>
</linearGradient>
<linearGradient id="paint2_linear_81_1600" x1="213" y1="19" x2="213" y2="38" gradientUnits="userSpaceOnUse">
<stop stop-color="#888888"/>
</linearGradient>
</defs>
</svg>
