<svg width="23" height="23" viewBox="0 0 23 23" fill="none" xmlns="http://www.w3.org/2000/svg">
<path d="M0.958344 11.5C0.958344 11.5 4.79168 3.83337 11.5 3.83337C18.2083 3.83337 22.0417 11.5 22.0417 11.5C22.0417 11.5 18.2083 19.1667 11.5 19.1667C4.79168 19.1667 0.958344 11.5 0.958344 11.5Z" stroke="url(#paint0_linear_81_1562)" stroke-width="1.5" stroke-linecap="round" stroke-linejoin="round"/>
<path d="M11.5 14.375C13.0878 14.375 14.375 13.0878 14.375 11.5C14.375 9.91218 13.0878 8.625 11.5 8.625C9.91218 8.625 8.625 9.91218 8.625 11.5C8.625 13.0878 9.91218 14.375 11.5 14.375Z" stroke="url(#paint1_linear_81_1562)" stroke-width="1.5" stroke-linecap="round" stroke-linejoin="round"/>
<defs>
<linearGradient id="paint0_linear_81_1562" x1="11.5" y1="3.83337" x2="11.5" y2="19.1667" gradientUnits="userSpaceOnUse">
<stop stop-color="#EC0000"/>
<stop offset="1" stop-color="#7A00BC"/>
</linearGradient>
<linearGradient id="paint1_linear_81_1562" x1="11.5" y1="8.625" x2="11.5" y2="14.375" gradientUnits="userSpaceOnUse">
<stop stop-color="#EC0000"/>
<stop offset="1" stop-color="#7A00BC"/>
</linearGradient>
</defs>
</svg>
