<svg width="330" height="30" viewBox="0 0 330 30" fill="none" xmlns="http://www.w3.org/2000/svg">
<line y1="29.25" x2="330" y2="29.25" stroke="url(#paint0_linear_81_1565)" stroke-width="1.5"/>
<path d="M2.9375 7.625V19H1.42969V7.625H2.9375ZM6.90625 12.3516V19H5.46094V10.5469H6.82812L6.90625 12.3516ZM6.5625 14.4531L5.96094 14.4297C5.96615 13.8516 6.05208 13.3177 6.21875 12.8281C6.38542 12.3333 6.61979 11.9036 6.92188 11.5391C7.22396 11.1745 7.58333 10.8932 8 10.6953C8.42188 10.4922 8.88802 10.3906 9.39844 10.3906C9.8151 10.3906 10.1901 10.4479 10.5234 10.5625C10.8568 10.6719 11.1406 10.849 11.375 11.0938C11.6146 11.3385 11.7969 11.6562 11.9219 12.0469C12.0469 12.4323 12.1094 12.9036 12.1094 13.4609V19H10.6562V13.4453C10.6562 13.0026 10.5911 12.6484 10.4609 12.3828C10.3307 12.112 10.1406 11.9167 9.89062 11.7969C9.64062 11.6719 9.33333 11.6094 8.96875 11.6094C8.60938 11.6094 8.28125 11.6849 7.98438 11.8359C7.69271 11.987 7.4401 12.1953 7.22656 12.4609C7.01823 12.7266 6.85417 13.0312 6.73438 13.375C6.61979 13.7135 6.5625 14.0729 6.5625 14.4531ZM19.2266 16.7578C19.2266 16.5495 19.1797 16.3568 19.0859 16.1797C18.9974 15.9974 18.8125 15.8333 18.5312 15.6875C18.2552 15.5365 17.8385 15.4062 17.2812 15.2969C16.8125 15.1979 16.388 15.0807 16.0078 14.9453C15.6328 14.8099 15.3125 14.6458 15.0469 14.4531C14.7865 14.2604 14.5859 14.0339 14.4453 13.7734C14.3047 13.513 14.2344 13.2083 14.2344 12.8594C14.2344 12.526 14.3073 12.2109 14.4531 11.9141C14.6042 11.6172 14.8151 11.3542 15.0859 11.125C15.362 10.8958 15.6927 10.7161 16.0781 10.5859C16.4635 10.4557 16.8932 10.3906 17.3672 10.3906C18.0443 10.3906 18.6224 10.5104 19.1016 10.75C19.5807 10.9896 19.9479 11.3099 20.2031 11.7109C20.4583 12.1068 20.5859 12.5469 20.5859 13.0312H19.1406C19.1406 12.7969 19.0703 12.5703 18.9297 12.3516C18.7943 12.1276 18.5938 11.9427 18.3281 11.7969C18.0677 11.651 17.7474 11.5781 17.3672 11.5781C16.9661 11.5781 16.6406 11.6406 16.3906 11.7656C16.1458 11.8854 15.9661 12.0391 15.8516 12.2266C15.7422 12.4141 15.6875 12.612 15.6875 12.8203C15.6875 12.9766 15.7135 13.1172 15.7656 13.2422C15.8229 13.362 15.9219 13.474 16.0625 13.5781C16.2031 13.6771 16.401 13.7708 16.6562 13.8594C16.9115 13.9479 17.237 14.0365 17.6328 14.125C18.3255 14.2812 18.8958 14.4688 19.3438 14.6875C19.7917 14.9062 20.125 15.1745 20.3438 15.4922C20.5625 15.8099 20.6719 16.1953 20.6719 16.6484C20.6719 17.0182 20.5938 17.3568 20.4375 17.6641C20.2865 17.9714 20.0651 18.237 19.7734 18.4609C19.487 18.6797 19.1432 18.8516 18.7422 18.9766C18.3464 19.0964 17.901 19.1562 17.4062 19.1562C16.6615 19.1562 16.0312 19.0234 15.5156 18.7578C15 18.4922 14.6094 18.1484 14.3438 17.7266C14.0781 17.3047 13.9453 16.8594 13.9453 16.3906H15.3984C15.4193 16.7865 15.5339 17.1016 15.7422 17.3359C15.9505 17.5651 16.2057 17.7292 16.5078 17.8281C16.8099 17.9219 17.1094 17.9688 17.4062 17.9688C17.8021 17.9688 18.1328 17.9167 18.3984 17.8125C18.6693 17.7083 18.875 17.5651 19.0156 17.3828C19.1562 17.2005 19.2266 16.9922 19.2266 16.7578ZM24.1406 10.5469V19H22.6875V10.5469H24.1406ZM22.5781 8.30469C22.5781 8.07031 22.6484 7.8724 22.7891 7.71094C22.9349 7.54948 23.1484 7.46875 23.4297 7.46875C23.7057 7.46875 23.9167 7.54948 24.0625 7.71094C24.2135 7.8724 24.2891 8.07031 24.2891 8.30469C24.2891 8.52865 24.2135 8.72135 24.0625 8.88281C23.9167 9.03906 23.7057 9.11719 23.4297 9.11719C23.1484 9.11719 22.9349 9.03906 22.7891 8.88281C22.6484 8.72135 22.5781 8.52865 22.5781 8.30469ZM27.9062 11.875V19H26.4609V10.5469H27.8672L27.9062 11.875ZM30.5469 10.5L30.5391 11.8438C30.4193 11.8177 30.3047 11.8021 30.1953 11.7969C30.0911 11.7865 29.9714 11.7812 29.8359 11.7812C29.5026 11.7812 29.2083 11.8333 28.9531 11.9375C28.6979 12.0417 28.4818 12.1875 28.3047 12.375C28.1276 12.5625 27.987 12.7865 27.8828 13.0469C27.7839 13.3021 27.7188 13.5833 27.6875 13.8906L27.2812 14.125C27.2812 13.6146 27.3307 13.1354 27.4297 12.6875C27.5339 12.2396 27.6927 11.8438 27.9062 11.5C28.1198 11.151 28.3906 10.8802 28.7188 10.6875C29.0521 10.4896 29.4479 10.3906 29.9062 10.3906C30.0104 10.3906 30.1302 10.4036 30.2656 10.4297C30.401 10.4505 30.4948 10.474 30.5469 10.5ZM36.5547 17.5547V13.2031C36.5547 12.8698 36.487 12.5807 36.3516 12.3359C36.2214 12.0859 36.0234 11.8932 35.7578 11.7578C35.4922 11.6224 35.1641 11.5547 34.7734 11.5547C34.4089 11.5547 34.0885 11.6172 33.8125 11.7422C33.5417 11.8672 33.3281 12.0312 33.1719 12.2344C33.0208 12.4375 32.9453 12.6562 32.9453 12.8906H31.5C31.5 12.5885 31.5781 12.2891 31.7344 11.9922C31.8906 11.6953 32.1146 11.4271 32.4062 11.1875C32.7031 10.9427 33.0573 10.75 33.4688 10.6094C33.8854 10.4635 34.349 10.3906 34.8594 10.3906C35.474 10.3906 36.0156 10.4948 36.4844 10.7031C36.9583 10.9115 37.3281 11.2266 37.5938 11.6484C37.8646 12.0651 38 12.5885 38 13.2188V17.1562C38 17.4375 38.0234 17.737 38.0703 18.0547C38.1224 18.3724 38.1979 18.6458 38.2969 18.875V19H36.7891C36.7161 18.8333 36.6589 18.612 36.6172 18.3359C36.5755 18.0547 36.5547 17.7943 36.5547 17.5547ZM36.8047 13.875L36.8203 14.8906H35.3594C34.9479 14.8906 34.5807 14.9245 34.2578 14.9922C33.9349 15.0547 33.6641 15.151 33.4453 15.2812C33.2266 15.4115 33.0599 15.5755 32.9453 15.7734C32.8307 15.9661 32.7734 16.1927 32.7734 16.4531C32.7734 16.7188 32.8333 16.9609 32.9531 17.1797C33.0729 17.3984 33.2526 17.5729 33.4922 17.7031C33.737 17.8281 34.0365 17.8906 34.3906 17.8906C34.8333 17.8906 35.224 17.7969 35.5625 17.6094C35.901 17.4219 36.1693 17.1927 36.3672 16.9219C36.5703 16.651 36.6797 16.388 36.6953 16.1328L37.3125 16.8281C37.276 17.0469 37.1771 17.2891 37.0156 17.5547C36.8542 17.8203 36.638 18.0755 36.3672 18.3203C36.1016 18.5599 35.7839 18.7604 35.4141 18.9219C35.0495 19.0781 34.638 19.1562 34.1797 19.1562C33.6068 19.1562 33.1042 19.0443 32.6719 18.8203C32.2448 18.5964 31.9115 18.2969 31.6719 17.9219C31.4375 17.5417 31.3203 17.1172 31.3203 16.6484C31.3203 16.1953 31.4089 15.7969 31.5859 15.4531C31.763 15.1042 32.0182 14.8151 32.3516 14.5859C32.6849 14.3516 33.0859 14.1745 33.5547 14.0547C34.0234 13.9349 34.5469 13.875 35.125 13.875H36.8047ZM49.2266 17.5547V13.2031C49.2266 12.8698 49.1589 12.5807 49.0234 12.3359C48.8932 12.0859 48.6953 11.8932 48.4297 11.7578C48.1641 11.6224 47.8359 11.5547 47.4453 11.5547C47.0807 11.5547 46.7604 11.6172 46.4844 11.7422C46.2135 11.8672 46 12.0312 45.8438 12.2344C45.6927 12.4375 45.6172 12.6562 45.6172 12.8906H44.1719C44.1719 12.5885 44.25 12.2891 44.4062 11.9922C44.5625 11.6953 44.7865 11.4271 45.0781 11.1875C45.375 10.9427 45.7292 10.75 46.1406 10.6094C46.5573 10.4635 47.0208 10.3906 47.5312 10.3906C48.1458 10.3906 48.6875 10.4948 49.1562 10.7031C49.6302 10.9115 50 11.2266 50.2656 11.6484C50.5365 12.0651 50.6719 12.5885 50.6719 13.2188V17.1562C50.6719 17.4375 50.6953 17.737 50.7422 18.0547C50.7943 18.3724 50.8698 18.6458 50.9688 18.875V19H49.4609C49.388 18.8333 49.3307 18.612 49.2891 18.3359C49.2474 18.0547 49.2266 17.7943 49.2266 17.5547ZM49.4766 13.875L49.4922 14.8906H48.0312C47.6198 14.8906 47.2526 14.9245 46.9297 14.9922C46.6068 15.0547 46.3359 15.151 46.1172 15.2812C45.8984 15.4115 45.7318 15.5755 45.6172 15.7734C45.5026 15.9661 45.4453 16.1927 45.4453 16.4531C45.4453 16.7188 45.5052 16.9609 45.625 17.1797C45.7448 17.3984 45.9245 17.5729 46.1641 17.7031C46.4089 17.8281 46.7083 17.8906 47.0625 17.8906C47.5052 17.8906 47.8958 17.7969 48.2344 17.6094C48.5729 17.4219 48.8411 17.1927 49.0391 16.9219C49.2422 16.651 49.3516 16.388 49.3672 16.1328L49.9844 16.8281C49.9479 17.0469 49.849 17.2891 49.6875 17.5547C49.526 17.8203 49.3099 18.0755 49.0391 18.3203C48.7734 18.5599 48.4557 18.7604 48.0859 18.9219C47.7214 19.0781 47.3099 19.1562 46.8516 19.1562C46.2786 19.1562 45.776 19.0443 45.3438 18.8203C44.9167 18.5964 44.5833 18.2969 44.3438 17.9219C44.1094 17.5417 43.9922 17.1172 43.9922 16.6484C43.9922 16.1953 44.0807 15.7969 44.2578 15.4531C44.4349 15.1042 44.6901 14.8151 45.0234 14.5859C45.3568 14.3516 45.7578 14.1745 46.2266 14.0547C46.6953 13.9349 47.2188 13.875 47.7969 13.875H49.4766ZM61.8359 16.7578C61.8359 16.5495 61.7891 16.3568 61.6953 16.1797C61.6068 15.9974 61.4219 15.8333 61.1406 15.6875C60.8646 15.5365 60.4479 15.4062 59.8906 15.2969C59.4219 15.1979 58.9974 15.0807 58.6172 14.9453C58.2422 14.8099 57.9219 14.6458 57.6562 14.4531C57.3958 14.2604 57.1953 14.0339 57.0547 13.7734C56.9141 13.513 56.8438 13.2083 56.8438 12.8594C56.8438 12.526 56.9167 12.2109 57.0625 11.9141C57.2135 11.6172 57.4245 11.3542 57.6953 11.125C57.9714 10.8958 58.3021 10.7161 58.6875 10.5859C59.0729 10.4557 59.5026 10.3906 59.9766 10.3906C60.6536 10.3906 61.2318 10.5104 61.7109 10.75C62.1901 10.9896 62.5573 11.3099 62.8125 11.7109C63.0677 12.1068 63.1953 12.5469 63.1953 13.0312H61.75C61.75 12.7969 61.6797 12.5703 61.5391 12.3516C61.4036 12.1276 61.2031 11.9427 60.9375 11.7969C60.6771 11.651 60.3568 11.5781 59.9766 11.5781C59.5755 11.5781 59.25 11.6406 59 11.7656C58.7552 11.8854 58.5755 12.0391 58.4609 12.2266C58.3516 12.4141 58.2969 12.612 58.2969 12.8203C58.2969 12.9766 58.3229 13.1172 58.375 13.2422C58.4323 13.362 58.5312 13.474 58.6719 13.5781C58.8125 13.6771 59.0104 13.7708 59.2656 13.8594C59.5208 13.9479 59.8464 14.0365 60.2422 14.125C60.9349 14.2812 61.5052 14.4688 61.9531 14.6875C62.401 14.9062 62.7344 15.1745 62.9531 15.4922C63.1719 15.8099 63.2812 16.1953 63.2812 16.6484C63.2812 17.0182 63.2031 17.3568 63.0469 17.6641C62.8958 17.9714 62.6745 18.237 62.3828 18.4609C62.0964 18.6797 61.7526 18.8516 61.3516 18.9766C60.9557 19.0964 60.5104 19.1562 60.0156 19.1562C59.2708 19.1562 58.6406 19.0234 58.125 18.7578C57.6094 18.4922 57.2188 18.1484 56.9531 17.7266C56.6875 17.3047 56.5547 16.8594 56.5547 16.3906H58.0078C58.0286 16.7865 58.1432 17.1016 58.3516 17.3359C58.5599 17.5651 58.8151 17.7292 59.1172 17.8281C59.4193 17.9219 59.7188 17.9688 60.0156 17.9688C60.4115 17.9688 60.7422 17.9167 61.0078 17.8125C61.2786 17.7083 61.4844 17.5651 61.625 17.3828C61.7656 17.2005 61.8359 16.9922 61.8359 16.7578ZM70.3516 17.0469V10.5469H71.8047V19H70.4219L70.3516 17.0469ZM70.625 15.2656L71.2266 15.25C71.2266 15.8125 71.1667 16.3333 71.0469 16.8125C70.9323 17.2865 70.7448 17.6979 70.4844 18.0469C70.224 18.3958 69.8828 18.6693 69.4609 18.8672C69.0391 19.0599 68.526 19.1562 67.9219 19.1562C67.5104 19.1562 67.1328 19.0964 66.7891 18.9766C66.4505 18.8568 66.1589 18.6719 65.9141 18.4219C65.6693 18.1719 65.4792 17.8464 65.3438 17.4453C65.2135 17.0443 65.1484 16.5625 65.1484 16V10.5469H66.5938V16.0156C66.5938 16.3958 66.6354 16.7109 66.7188 16.9609C66.8073 17.2057 66.9245 17.401 67.0703 17.5469C67.2214 17.6875 67.388 17.7865 67.5703 17.8438C67.7578 17.901 67.9505 17.9297 68.1484 17.9297C68.763 17.9297 69.25 17.8125 69.6094 17.5781C69.9688 17.3385 70.2266 17.0182 70.3828 16.6172C70.5443 16.2109 70.625 15.7604 70.625 15.2656ZM78.9922 17.5547V13.2031C78.9922 12.8698 78.9245 12.5807 78.7891 12.3359C78.6589 12.0859 78.4609 11.8932 78.1953 11.7578C77.9297 11.6224 77.6016 11.5547 77.2109 11.5547C76.8464 11.5547 76.526 11.6172 76.25 11.7422C75.9792 11.8672 75.7656 12.0312 75.6094 12.2344C75.4583 12.4375 75.3828 12.6562 75.3828 12.8906H73.9375C73.9375 12.5885 74.0156 12.2891 74.1719 11.9922C74.3281 11.6953 74.5521 11.4271 74.8438 11.1875C75.1406 10.9427 75.4948 10.75 75.9062 10.6094C76.3229 10.4635 76.7865 10.3906 77.2969 10.3906C77.9115 10.3906 78.4531 10.4948 78.9219 10.7031C79.3958 10.9115 79.7656 11.2266 80.0312 11.6484C80.3021 12.0651 80.4375 12.5885 80.4375 13.2188V17.1562C80.4375 17.4375 80.4609 17.737 80.5078 18.0547C80.5599 18.3724 80.6354 18.6458 80.7344 18.875V19H79.2266C79.1536 18.8333 79.0964 18.612 79.0547 18.3359C79.013 18.0547 78.9922 17.7943 78.9922 17.5547ZM79.2422 13.875L79.2578 14.8906H77.7969C77.3854 14.8906 77.0182 14.9245 76.6953 14.9922C76.3724 15.0547 76.1016 15.151 75.8828 15.2812C75.6641 15.4115 75.4974 15.5755 75.3828 15.7734C75.2682 15.9661 75.2109 16.1927 75.2109 16.4531C75.2109 16.7188 75.2708 16.9609 75.3906 17.1797C75.5104 17.3984 75.6901 17.5729 75.9297 17.7031C76.1745 17.8281 76.474 17.8906 76.8281 17.8906C77.2708 17.8906 77.6615 17.7969 78 17.6094C78.3385 17.4219 78.6068 17.1927 78.8047 16.9219C79.0078 16.651 79.1172 16.388 79.1328 16.1328L79.75 16.8281C79.7135 17.0469 79.6146 17.2891 79.4531 17.5547C79.2917 17.8203 79.0755 18.0755 78.8047 18.3203C78.5391 18.5599 78.2214 18.7604 77.8516 18.9219C77.487 19.0781 77.0755 19.1562 76.6172 19.1562C76.0443 19.1562 75.5417 19.0443 75.1094 18.8203C74.6823 18.5964 74.349 18.2969 74.1094 17.9219C73.875 17.5417 73.7578 17.1172 73.7578 16.6484C73.7578 16.1953 73.8464 15.7969 74.0234 15.4531C74.2005 15.1042 74.4557 14.8151 74.7891 14.5859C75.1224 14.3516 75.5234 14.1745 75.9922 14.0547C76.4609 13.9349 76.9844 13.875 77.5625 13.875H79.2422ZM91.6016 16.7578C91.6016 16.5495 91.5547 16.3568 91.4609 16.1797C91.3724 15.9974 91.1875 15.8333 90.9062 15.6875C90.6302 15.5365 90.2135 15.4062 89.6562 15.2969C89.1875 15.1979 88.763 15.0807 88.3828 14.9453C88.0078 14.8099 87.6875 14.6458 87.4219 14.4531C87.1615 14.2604 86.9609 14.0339 86.8203 13.7734C86.6797 13.513 86.6094 13.2083 86.6094 12.8594C86.6094 12.526 86.6823 12.2109 86.8281 11.9141C86.9792 11.6172 87.1901 11.3542 87.4609 11.125C87.737 10.8958 88.0677 10.7161 88.4531 10.5859C88.8385 10.4557 89.2682 10.3906 89.7422 10.3906C90.4193 10.3906 90.9974 10.5104 91.4766 10.75C91.9557 10.9896 92.3229 11.3099 92.5781 11.7109C92.8333 12.1068 92.9609 12.5469 92.9609 13.0312H91.5156C91.5156 12.7969 91.4453 12.5703 91.3047 12.3516C91.1693 12.1276 90.9688 11.9427 90.7031 11.7969C90.4427 11.651 90.1224 11.5781 89.7422 11.5781C89.3411 11.5781 89.0156 11.6406 88.7656 11.7656C88.5208 11.8854 88.3411 12.0391 88.2266 12.2266C88.1172 12.4141 88.0625 12.612 88.0625 12.8203C88.0625 12.9766 88.0885 13.1172 88.1406 13.2422C88.1979 13.362 88.2969 13.474 88.4375 13.5781C88.5781 13.6771 88.776 13.7708 89.0312 13.8594C89.2865 13.9479 89.612 14.0365 90.0078 14.125C90.7005 14.2812 91.2708 14.4688 91.7188 14.6875C92.1667 14.9062 92.5 15.1745 92.7188 15.4922C92.9375 15.8099 93.0469 16.1953 93.0469 16.6484C93.0469 17.0182 92.9688 17.3568 92.8125 17.6641C92.6615 17.9714 92.4401 18.237 92.1484 18.4609C91.862 18.6797 91.5182 18.8516 91.1172 18.9766C90.7214 19.0964 90.276 19.1562 89.7812 19.1562C89.0365 19.1562 88.4062 19.0234 87.8906 18.7578C87.375 18.4922 86.9844 18.1484 86.7188 17.7266C86.4531 17.3047 86.3203 16.8594 86.3203 16.3906H87.7734C87.7943 16.7865 87.9089 17.1016 88.1172 17.3359C88.3255 17.5651 88.5807 17.7292 88.8828 17.8281C89.1849 17.9219 89.4844 17.9688 89.7812 17.9688C90.1771 17.9688 90.5078 17.9167 90.7734 17.8125C91.0443 17.7083 91.25 17.5651 91.3906 17.3828C91.5312 17.2005 91.6016 16.9922 91.6016 16.7578ZM98.4531 19.1562C97.8646 19.1562 97.3307 19.0573 96.8516 18.8594C96.3776 18.6562 95.9688 18.3724 95.625 18.0078C95.2865 17.6432 95.026 17.2109 94.8438 16.7109C94.6615 16.2109 94.5703 15.6641 94.5703 15.0703V14.7422C94.5703 14.0547 94.6719 13.4427 94.875 12.9062C95.0781 12.3646 95.3542 11.9062 95.7031 11.5312C96.0521 11.1562 96.4479 10.8724 96.8906 10.6797C97.3333 10.487 97.7917 10.3906 98.2656 10.3906C98.8698 10.3906 99.3906 10.4948 99.8281 10.7031C100.271 10.9115 100.633 11.2031 100.914 11.5781C101.195 11.9479 101.404 12.3854 101.539 12.8906C101.674 13.3906 101.742 13.9375 101.742 14.5312V15.1797H95.4297V14H100.297V13.8906C100.276 13.5156 100.198 13.151 100.062 12.7969C99.9323 12.4427 99.724 12.151 99.4375 11.9219C99.151 11.6927 98.7604 11.5781 98.2656 11.5781C97.9375 11.5781 97.6354 11.6484 97.3594 11.7891C97.0833 11.9245 96.8464 12.1276 96.6484 12.3984C96.4505 12.6693 96.2969 13 96.1875 13.3906C96.0781 13.7812 96.0234 14.2318 96.0234 14.7422V15.0703C96.0234 15.4714 96.0781 15.849 96.1875 16.2031C96.3021 16.5521 96.4661 16.8594 96.6797 17.125C96.8984 17.3906 97.1615 17.599 97.4688 17.75C97.7812 17.901 98.1354 17.9766 98.5312 17.9766C99.0417 17.9766 99.474 17.8724 99.8281 17.6641C100.182 17.4557 100.492 17.1771 100.758 16.8281L101.633 17.5234C101.451 17.7995 101.219 18.0625 100.938 18.3125C100.656 18.5625 100.31 18.7656 99.8984 18.9219C99.4922 19.0781 99.0104 19.1562 98.4531 19.1562ZM104.875 12.3516V19H103.43V10.5469H104.797L104.875 12.3516ZM104.531 14.4531L103.93 14.4297C103.935 13.8516 104.021 13.3177 104.188 12.8281C104.354 12.3333 104.589 11.9036 104.891 11.5391C105.193 11.1745 105.552 10.8932 105.969 10.6953C106.391 10.4922 106.857 10.3906 107.367 10.3906C107.784 10.3906 108.159 10.4479 108.492 10.5625C108.826 10.6719 109.109 10.849 109.344 11.0938C109.583 11.3385 109.766 11.6562 109.891 12.0469C110.016 12.4323 110.078 12.9036 110.078 13.4609V19H108.625V13.4453C108.625 13.0026 108.56 12.6484 108.43 12.3828C108.299 12.112 108.109 11.9167 107.859 11.7969C107.609 11.6719 107.302 11.6094 106.938 11.6094C106.578 11.6094 106.25 11.6849 105.953 11.8359C105.661 11.987 105.409 12.1953 105.195 12.4609C104.987 12.7266 104.823 13.0312 104.703 13.375C104.589 13.7135 104.531 14.0729 104.531 14.4531ZM113.719 7V19H112.273V7H113.719ZM113.375 14.4531L112.773 14.4297C112.779 13.8516 112.865 13.3177 113.031 12.8281C113.198 12.3333 113.432 11.9036 113.734 11.5391C114.036 11.1745 114.396 10.8932 114.812 10.6953C115.234 10.4922 115.701 10.3906 116.211 10.3906C116.628 10.3906 117.003 10.4479 117.336 10.5625C117.669 10.6719 117.953 10.849 118.188 11.0938C118.427 11.3385 118.609 11.6562 118.734 12.0469C118.859 12.4323 118.922 12.9036 118.922 13.4609V19H117.469V13.4453C117.469 13.0026 117.404 12.6484 117.273 12.3828C117.143 12.112 116.953 11.9167 116.703 11.7969C116.453 11.6719 116.146 11.6094 115.781 11.6094C115.422 11.6094 115.094 11.6849 114.797 11.8359C114.505 11.987 114.253 12.1953 114.039 12.4609C113.831 12.7266 113.667 13.0312 113.547 13.375C113.432 13.7135 113.375 14.0729 113.375 14.4531ZM126.07 17.5547V13.2031C126.07 12.8698 126.003 12.5807 125.867 12.3359C125.737 12.0859 125.539 11.8932 125.273 11.7578C125.008 11.6224 124.68 11.5547 124.289 11.5547C123.924 11.5547 123.604 11.6172 123.328 11.7422C123.057 11.8672 122.844 12.0312 122.688 12.2344C122.536 12.4375 122.461 12.6562 122.461 12.8906H121.016C121.016 12.5885 121.094 12.2891 121.25 11.9922C121.406 11.6953 121.63 11.4271 121.922 11.1875C122.219 10.9427 122.573 10.75 122.984 10.6094C123.401 10.4635 123.865 10.3906 124.375 10.3906C124.99 10.3906 125.531 10.4948 126 10.7031C126.474 10.9115 126.844 11.2266 127.109 11.6484C127.38 12.0651 127.516 12.5885 127.516 13.2188V17.1562C127.516 17.4375 127.539 17.737 127.586 18.0547C127.638 18.3724 127.714 18.6458 127.812 18.875V19H126.305C126.232 18.8333 126.174 18.612 126.133 18.3359C126.091 18.0547 126.07 17.7943 126.07 17.5547ZM126.32 13.875L126.336 14.8906H124.875C124.464 14.8906 124.096 14.9245 123.773 14.9922C123.451 15.0547 123.18 15.151 122.961 15.2812C122.742 15.4115 122.576 15.5755 122.461 15.7734C122.346 15.9661 122.289 16.1927 122.289 16.4531C122.289 16.7188 122.349 16.9609 122.469 17.1797C122.589 17.3984 122.768 17.5729 123.008 17.7031C123.253 17.8281 123.552 17.8906 123.906 17.8906C124.349 17.8906 124.74 17.7969 125.078 17.6094C125.417 17.4219 125.685 17.1927 125.883 16.9219C126.086 16.651 126.195 16.388 126.211 16.1328L126.828 16.8281C126.792 17.0469 126.693 17.2891 126.531 17.5547C126.37 17.8203 126.154 18.0755 125.883 18.3203C125.617 18.5599 125.299 18.7604 124.93 18.9219C124.565 19.0781 124.154 19.1562 123.695 19.1562C123.122 19.1562 122.62 19.0443 122.188 18.8203C121.76 18.5964 121.427 18.2969 121.188 17.9219C120.953 17.5417 120.836 17.1172 120.836 16.6484C120.836 16.1953 120.924 15.7969 121.102 15.4531C121.279 15.1042 121.534 14.8151 121.867 14.5859C122.201 14.3516 122.602 14.1745 123.07 14.0547C123.539 13.9349 124.062 13.875 124.641 13.875H126.32Z" fill="#1D1D1D"/>
<path d="M292.958 11.5C292.958 11.5 296.792 3.83337 303.5 3.83337C310.208 3.83337 314.042 11.5 314.042 11.5C314.042 11.5 310.208 19.1667 303.5 19.1667C296.792 19.1667 292.958 11.5 292.958 11.5Z" stroke="url(#paint1_linear_81_1565)" stroke-width="1.5" stroke-linecap="round" stroke-linejoin="round"/>
<path d="M303.5 14.375C305.088 14.375 306.375 13.0878 306.375 11.5C306.375 9.91218 305.088 8.625 303.5 8.625C301.912 8.625 300.625 9.91218 300.625 11.5C300.625 13.0878 301.912 14.375 303.5 14.375Z" stroke="url(#paint2_linear_81_1565)" stroke-width="1.5" stroke-linecap="round" stroke-linejoin="round"/>
<defs>
<linearGradient id="paint0_linear_81_1565" x1="80.1761" y1="30.0001" x2="260.282" y2="30.0005" gradientUnits="userSpaceOnUse">
<stop stop-color="#EC0000"/>
<stop offset="1" stop-color="#7A00BC"/>
</linearGradient>
<linearGradient id="paint1_linear_81_1565" x1="303.5" y1="3.83337" x2="303.5" y2="19.1667" gradientUnits="userSpaceOnUse">
<stop stop-color="#EC0000"/>
<stop offset="1" stop-color="#7A00BC"/>
</linearGradient>
<linearGradient id="paint2_linear_81_1565" x1="303.5" y1="8.625" x2="303.5" y2="14.375" gradientUnits="userSpaceOnUse">
<stop stop-color="#EC0000"/>
<stop offset="1" stop-color="#7A00BC"/>
</linearGradient>
</defs>
</svg>
