<svg width="25" height="25" viewBox="0 0 25 25" fill="none" xmlns="http://www.w3.org/2000/svg">
<path d="M12.5 2.08337C12.5 2.08337 7.29167 4.16671 7.29167 12.5C7.29167 15.7292 8.08333 18.4896 9.03125 20.6563C9.375 21.4063 10.1146 21.875 10.9375 21.875H14.0625C14.8854 21.875 15.625 21.4063 15.9688 20.6563C16.9271 18.4896 17.7083 15.7292 17.7083 12.5C17.7083 4.16671 12.5 2.08337 12.5 2.08337ZM14.0625 19.7917H10.9375C9.89583 17.4584 9.375 15.0105 9.375 12.5C9.375 7.66671 11.3542 5.41671 12.5 4.51046C13.6458 5.41671 15.625 7.66671 15.625 12.5C15.625 15.0105 15.1042 17.4584 14.0625 19.7917ZM20.8333 22.9167L16.8125 21.3021C17.5417 19.7084 18.0625 18.0625 18.3854 16.3855M8.1875 21.3021L4.16667 22.9167L6.61458 16.3855C6.9375 18.0625 7.45833 19.7084 8.1875 21.3021ZM12.5 12.5C11.3542 12.5 10.4167 11.5625 10.4167 10.4167C10.4167 9.27087 11.3542 8.33337 12.5 8.33337C13.6458 8.33337 14.5833 9.27087 14.5833 10.4167C14.5833 11.5625 13.6458 12.5 12.5 12.5Z" fill="black"/>
</svg>
